<svg id="Layer_3" data-name="Layer 3" xmlns="http://www.w3.org/2000/svg" viewBox="0 0 70.38892 70.38892">
  <defs>
    <style>
      .cls-1 {
        fill: #38b8a3;
      }
    </style>
  </defs>
  <title>Artboard 3Icon - </title>
  <g>
    <path class="cls-1" d="M18.87589,27.69079l4.272-2.13593L47.44108,13.40832l1.57031-.78516c.19531-.08148.08179-.08612.10156-.124l-.02295-.0929-.04614-.18573-.18506-.743-.36963-1.48608-.73926-2.97211-.1665-.66858-3.15405.07465L38.11173,6.577l-8.92114.21411-4.593.11017a16.92218,16.92218,0,0,0-.23926,3.31433,16.62638,16.62638,0,0,0,.39673,3.24554l4.59277-.11023,3.71362-.08911-12.84814,6.424-4.27173,2.13593A16.766,16.766,0,0,0,17.134,24.92443,16.525,16.525,0,0,0,18.87589,27.69079Z"/>
    <path class="cls-1" d="M51.559,15.31335,47.44987,17.368,20.2133,30.98614l-4.27173,2.13593A16.766,16.766,0,0,0,17.134,36.22473a16.525,16.525,0,0,0,1.74194,2.76636l4.272-2.13593L50.38419,23.23693l4.10913-2.05457a16.90991,16.90991,0,0,0-1.19409-3.101A16.62788,16.62788,0,0,0,51.559,15.31335Z"/>
    <path class="cls-1" d="M51.56071,26.602l-4.2749,2.13031L20.01139,42.32427l-4.11182,2.04913a16.90681,16.90681,0,0,0,1.179,3.077c.00024.00977-.001.01929-.00073.02905.021,1.103.05151,2.1853.157,3.26208a13.66856,13.66856,0,0,1,3.70581.781,9.35976,9.35976,0,0,1,4.67969,3.45087,10.57219,10.57219,0,0,1,1.69434,5.81079c.01318.33783.06006.5885.05078.99829v3.44568a16.90772,16.90772,0,0,0,3.30762.3186,16.61957,16.61957,0,0,0,3.25391-.3186V62.93109c0-.76318.01514-1.49725-.05713-2.444a17.06788,17.06788,0,0,0-2.83521-9.22064,15.73868,15.73868,0,0,0-5.02417-4.60028l24.20215-12.061,4.2749-2.13025A16.78553,16.78553,0,0,0,53.299,29.37072,16.53887,16.53887,0,0,0,51.56071,26.602Z"/>
    <path class="cls-1" d="M47.22111,45.3742a15.90244,15.90244,0,0,0-7.86865,5.89893A17.03591,17.03591,0,0,0,36.51725,60.487c-.07227.9469-.05713,1.68091-.05737,2.44409v2.29712a16.912,16.912,0,0,0,3.30786.3186,16.61957,16.61957,0,0,0,3.25391-.3186V61.78253c-.00928-.40979.0376-.6604.05078-.99823a10.53831,10.53831,0,0,1,1.69165-5.80023A9.3147,9.3147,0,0,1,49.43839,51.55a13.64173,13.64173,0,0,1,3.70654-.77075c.10815-1.075.14185-2.174.16626-3.31665a10.36055,10.36055,0,0,0-.4751-3.23779A20.0285,20.0285,0,0,0,47.22111,45.3742Z"/>
  </g>
</svg>
