<svg id="Layer_3" data-name="Layer 3" xmlns="http://www.w3.org/2000/svg" viewBox="0 0 70.38892 70.38892">
  <defs>
    <style>
      .cls-1 {
        fill: #38b8a3;
      }
    </style>
  </defs>
  <title>Artboard 5Icon - </title>
  <g>
    <path class="cls-1" d="M38.23185,49.25085a14.81137,14.81137,0,0,1-17.949-17.95319,23.20717,23.20717,0,0,0-3.13794-1.10791,13.071,13.071,0,0,0-3.23047-.47345,21.433,21.433,0,0,0-.63159,5.3717,20.40233,20.40233,0,0,0,.11938,2.0899l-5.63232,1.5097a26.33154,26.33154,0,0,0,.66064,3.24731,25.84868,25.84868,0,0,0,1.03833,3.0907l5.64819-1.514a21.36237,21.36237,0,0,0,2.29395,3.97L13.27531,51.618a26.30425,26.30425,0,0,0,2.1958,2.48193,25.87584,25.87584,0,0,0,2.44434,2.15753l4.13623-4.13708a21.48859,21.48859,0,0,0,3.96777,2.29779l-1.51221,5.645a26.33008,26.33008,0,0,0,3.14258,1.05164,25.89,25.89,0,0,0,3.19556.64642l1.511-5.63953c.62085.06641,1.2439.113,1.86816.12213a21.46046,21.46046,0,0,0,5.58643-.624,13.20633,13.20633,0,0,0-.48413-3.28375A22.66513,22.66513,0,0,0,38.23185,49.25085Z"/>
    <path class="cls-1" d="M31.0695,20.51232a14.81307,14.81307,0,0,1,17.9502,17.95349,23.18591,23.18591,0,0,0,3.13794,1.10748,13.07329,13.07329,0,0,0,3.23047.473,21.44383,21.44383,0,0,0,.6311-5.37158,20.419,20.419,0,0,0-.11938-2.09076l5.63135-1.50916a26.11525,26.11525,0,0,0-.65942-3.24841,25.69632,25.69632,0,0,0-1.03931-3.08966l-5.64795,1.51367a21.35928,21.35928,0,0,0-2.2937-3.96954l4.1355-4.13574A26.101,26.101,0,0,0,53.831,15.66162a25.69172,25.69172,0,0,0-2.44482-2.15613l-4.13623,4.13678a21.47924,21.47924,0,0,0-3.96729-2.29761l1.51221-5.64484A26.10661,26.10661,0,0,0,41.652,8.64666a25.71505,25.71505,0,0,0-3.19531-.6449L36.946,13.6408c-.62134-.06653-1.24512-.1131-1.87036-.12213a21.4426,21.4426,0,0,0-5.58667.62512,13.18323,13.18323,0,0,0,.48486,3.28357A22.66774,22.66774,0,0,0,31.0695,20.51232Z"/>
    <path class="cls-1" d="M67.01139,49.61108l-7.6958-7.695c-.51-.9621-1.01978.10541-1.52979.50568l-1.52954,1.5296-2.57568,2.57581-1.27344,1.27332L26.109,21.50115,23.02336,18.4154A12.22154,12.22154,0,0,0,24.54,10.80053,12.30037,12.30037,0,0,0,18.69132,1.797,12.28953,12.28953,0,0,0,12.75041.03173,11.09658,11.09658,0,0,0,12.31828,3.33c.00073,1.10132.10645,2.19189.20483,3.25958A5.76735,5.76735,0,0,1,16.43449,16.383a5.766,5.766,0,0,1-8.99365-.95728,5.70865,5.70865,0,0,1-.88306-2.868c-1.06763-.09955-2.1731-.20642-3.314-.2077a10.82311,10.82311,0,0,0-3.2439.4339A12.2964,12.2964,0,0,0,18.3842,23.05566l3.085,3.08527L36.04508,40.71765,43.33317,48.006l3.644,3.64417.79053.79047L46.6779,53.53033,44.102,56.1062l-1.58936,1.58929-.79468.79468-.19873.19861c-.01929.03314-.09668.06622-.0686.09937l.09912.0993.39746.39734,7.69507,7.69507,3.3772,3.37726a16.77081,16.77081,0,0,0,2.56641-2.11249,16.51761,16.51761,0,0,0,2.07349-2.52734L54.28214,62.34,50.715,58.77288l.60254-.60272,1.13159-1.13147c.02783-.00708.05566-.04547.0835-.08356l2.03369-2.03357-.00024-.00031,4.23755-4.23767,3.56812,3.56757,3.37744,3.37708a16.77358,16.77358,0,0,0,2.56616-2.11261,16.51854,16.51854,0,0,0,2.07349-2.52747Z"/>
  </g>
</svg>
