<svg id="Layer_3" data-name="Layer 3" xmlns="http://www.w3.org/2000/svg" viewBox="0 0 70.38892 70.38892">
  <defs>
    <style>
      .cls-1 {
        fill: #38b8a3;
      }
    </style>
  </defs>
  <title>Artboard 4Icon - </title>
  <g>
    <path class="cls-1" d="M35.37824,20.96069,32.001,17.58337a16.75335,16.75335,0,0,0-2.56616,2.11243,16.50149,16.50149,0,0,0-2.07373,2.52728l3.3772,3.37732,5.717,5.71735,3.24854,3.24866a16.91344,16.91344,0,0,0,2.56421-2.11346,16.63059,16.63059,0,0,0,2.07568-2.52625L41.09528,26.678Z"/>
    <path class="cls-1" d="M61.67121,8.7669l-.15674-.02264-.31323-.04535c-.83887-.1261-1.69165-.23431-2.51489-.37445L57.46149,8.103l-1.02173-.21729-1.1416-.26752c-1.52661-.37262-3.06006-.79852-4.58984-1.25079-3.05981-.91724-6.10547-1.96088-9.12891-3.08282-1.41089-.52014-2.81421-1.06927-4.21631-1.6217a17.34665,17.34665,0,0,0-1.51074,2.93536L35.8426,4.57a17.05036,17.05036,0,0,0-1.50024-2.907c-1.40234.55243-2.80542,1.10156-4.21655,1.6217-3.02368,1.12213-6.06982,2.16577-9.13013,3.083-1.53.45227-3.06348.87811-4.59058,1.25067l-1.1416.26746L14.242,8.103l-1.2251.22144c-.82349.14-1.67627.24823-2.51538.37427l-.31348.04535-.15674.02264-.07764.01129a.55731.55731,0,0,0-.002.07355V22.68573c-.03979.05811-.08667.11115-.12573.1698l.12573.12573V46.76788L9.96,48.17913a6.64036,6.64036,0,0,0,.25928.85l.23389.64148a36.95716,36.95716,0,0,0,1.62671,3.59589,34.29727,34.29727,0,0,0,4.3833,6.53082,26.61939,26.61939,0,0,0,6.03394,5.34149,27.19364,27.19364,0,0,0,3.61475,1.97083c.64233.24927,1.2981.46954,1.949.69977l.979.33728c.33081.09393.67114.15009,1.00684.22552.9021.168,1.80151.41858,2.70947.499l2.729.182a13.6541,13.6541,0,0,0,.3667-3.28668,21.43609,21.43609,0,0,0-.27368-3.27435l-2.03662-.13556c-.677-.05286-1.3186-.25836-1.98145-.36926-.24463-.05383-.49561-.08685-.73584-.15521l-.70532-.25342-1.41382-.4967a20.74065,20.74065,0,0,1-2.64038-1.45044,20.08117,20.08117,0,0,1-4.60742-4.09064,27.74352,27.74352,0,0,1-3.55493-5.29987,30.55256,30.55256,0,0,1-1.31689-2.90515l-.06421-.17523c-.00757-.02136-.00757-.02039-.00781-.02118V29.54327L44.06281,57.09356l2.14575,2.14587c-.19067.13-.37476.27185-.57056.39233a20.76737,20.76737,0,0,1-2.64062,1.45038l-1.41357.49664-.70532.25342c-.24023.0683-.49146.10138-.73608.15521-.66284.11084-1.30444.31641-1.98145.3692l-2.03662.13556a21.72065,21.72065,0,0,0-.27368,3.32935,13.436,13.436,0,0,0,.3667,3.23169l2.729-.182c.908-.08038,1.80737-.33093,2.70947-.499.33569-.07538.67578-.13165,1.00684-.22546l.979-.33734c.65088-.23016,1.30664-.4505,1.949-.69971a27.20118,27.20118,0,0,0,3.61475-1.9707,26.61418,26.61418,0,0,0,6.03394-5.34149,34.29028,34.29028,0,0,0,4.38354-6.531,37.01646,37.01646,0,0,0,1.62646-3.596l.23389-.64136a6.67824,6.67824,0,0,0,.259-.85l.00854-1.41125V8.852a.72941.72941,0,0,0-.00171-.07379ZM55.117,47.33618a30.62333,30.62333,0,0,1-1.31714,2.90515,28.04292,28.04292,0,0,1-2.865,4.4447L48.7027,52.45379,17.84309,21.59307,16.5135,20.26342V14.32983l1.44141-.33539c1.66431-.40607,3.29639-.85986,4.91626-1.33875,3.23291-.96893,6.4043-2.05664,9.53931-3.21985,1.155-.4259,2.29834-.87555,3.44214-1.324,1.144.44843,2.28711.898,3.44238,1.32391,3.13428,1.163,6.30518,2.25061,9.5376,3.21954,1.61963.47894,3.25146.93274,4.91553,1.33893l1.44092.33539V47.13934c-.00024.00067,0-.00012-.00781.02155Z"/>
  </g>
</svg>
