<svg id="Layer_3" data-name="Layer 3" xmlns="http://www.w3.org/2000/svg" viewBox="0 0 70.38892 70.38892">
  <defs>
    <style>
      .cls-1 {
        fill: #38b8a3;
      }
    </style>
  </defs>
  <title>Artboard 2Icon - </title>
  <g>
    <path class="cls-1" d="M69.53982,48.81537V6.59264c-.00244-.08763.02954-.20991-.09862-.1716H8.79812c-.03.0039-.0764-.00882-.09276.00878v23.303a16.76479,16.76479,0,0,0,3.30773.321,16.51525,16.51525,0,0,0,3.2528-.321V12.98157H62.97929V42.60365H19.08843a16.90372,16.90372,0,0,0-.31856,3.307,16.61613,16.61613,0,0,0,.31856,3.25332h12.115l-4.49557,4.4957L23.4599,56.90759a16.89868,16.89868,0,0,0,2.11313,2.5635,16.62692,16.62692,0,0,0,2.52589,2.07551l3.24794-3.24817L35.84232,53.803v9.85361a16.90587,16.90587,0,0,0,3.307.31854,16.62015,16.62015,0,0,0,3.25352-.31854V53.80312l4.49549,4.49531,3.24792,3.24817A16.91237,16.91237,0,0,0,52.71,59.43324a16.6224,16.6224,0,0,0,2.07528-2.52565l-3.2479-3.24794-4.49574-4.4957H69.51981A1.25194,1.25194,0,0,0,69.53982,48.81537Z"/>
    <path class="cls-1" d="M27.64831,30.33691a16.89417,16.89417,0,0,0-2.11313-2.56346,16.62486,16.62486,0,0,0-2.52589-2.07555l-3.2479,3.24817L4.22379,44.48365.84724,47.86023a16.7763,16.7763,0,0,0,2.11215,2.56592,16.51215,16.51215,0,0,0,2.52686,2.07309l3.37656-3.37658,15.5376-15.53781Z"/>
    <path class="cls-1" d="M51.44851,19.0678a16.74715,16.74715,0,0,0-3.30773-.321,16.49785,16.49785,0,0,0-3.2528.321v5.44452H39.44345a16.74561,16.74561,0,0,0-.321,3.30775,16.49752,16.49752,0,0,0,.321,3.25278H44.888V36.5196a16.90881,16.90881,0,0,0,3.307.31854,16.62319,16.62319,0,0,0,3.25354-.31854V31.07285h5.44673a16.90547,16.90547,0,0,0,.31854-3.307,16.61673,16.61673,0,0,0-.31854-3.25356H51.44851V19.0678Z"/>
  </g>
</svg>
